<svg width="20" height="21" viewBox="0 0 20 21" fill="none" xmlns="http://www.w3.org/2000/svg">
<path d="M10 18.8333C5.39765 18.8333 1.66669 15.1023 1.66669 10.5C1.66669 5.89762 5.39765 2.16667 10 2.16667C14.6024 2.16667 18.3334 5.89762 18.3334 10.5C18.3334 15.1023 14.6024 18.8333 10 18.8333ZM9.16669 13V14.6667H10.8334V13H9.16669ZM10.8334 11.6292C12.0381 11.2707 12.9167 10.1546 12.9167 8.83333C12.9167 7.2225 11.6109 5.91667 10 5.91667C8.58502 5.91667 7.40533 6.92433 7.13945 8.26122L8.77402 8.58814C8.88802 8.01519 9.3936 7.58333 10 7.58333C10.6904 7.58333 11.25 8.14297 11.25 8.83333C11.25 9.52367 10.6904 10.0833 10 10.0833C9.53977 10.0833 9.16669 10.4564 9.16669 10.9167V12.1667H10.8334V11.6292Z" fill="#374151"/>
</svg>
