<svg width="20" height="21" viewBox="0 0 20 21" fill="none" xmlns="http://www.w3.org/2000/svg">
<path d="M8.29503 2.34217C9.40635 2.10953 10.5673 2.10219 11.7041 2.33987C11.8516 3.30617 12.4207 4.1991 13.3331 4.72586C14.2454 5.25261 15.3034 5.29903 16.2139 4.94358C16.9882 5.80932 17.5623 6.81836 17.9164 7.8971C17.1544 8.50798 16.6664 9.44667 16.6664 10.4993C16.6664 11.5527 17.1549 12.4918 17.9178 13.1027C17.7417 13.6363 17.5087 14.1602 17.2166 14.666C16.9245 15.1719 16.5874 15.6356 16.2133 16.0549C15.3029 15.6997 14.2453 15.7463 13.3331 16.2728C12.4214 16.7992 11.8525 17.6912 11.7044 18.6566C10.5932 18.8892 9.43227 18.8965 8.29538 18.6588C8.14792 17.6926 7.57878 16.7996 6.66641 16.2728C5.75405 15.7461 4.69618 15.6997 3.78562 16.0552C3.01133 15.1894 2.43723 14.1803 2.08305 13.1016C2.84512 12.4907 3.33308 11.552 3.33308 10.4993C3.33308 9.44608 2.84455 8.50689 2.08173 7.89603C2.25779 7.36235 2.4908 6.83858 2.78287 6.33269C3.07494 5.82681 3.41204 5.36313 3.78619 4.94381C4.69663 5.29901 5.75424 5.2525 6.66641 4.72586C7.57805 4.19952 8.14702 3.30758 8.29503 2.34217ZM9.99977 12.9993C11.3804 12.9993 12.4998 11.8801 12.4998 10.4993C12.4998 9.11867 11.3804 7.99936 9.99977 7.99936C8.61902 7.99936 7.49974 9.11867 7.49974 10.4993C7.49974 11.8801 8.61902 12.9993 9.99977 12.9993Z" fill="#374151"/>
</svg>
