<svg width="24" height="36" viewBox="0 0 24 36" fill="none" xmlns="http://www.w3.org/2000/svg">
<path d="M10.8491 0.479906C10.8491 0.635295 10.8661 0.652561 11.0188 0.652561C11.1716 0.652561 11.1886 0.635295 11.1886 0.479906C11.1886 0.324516 11.1716 0.307251 11.0188 0.307251C10.8661 0.307251 10.8491 0.324516 10.8491 0.479906Z" fill="#186DAA"/>
<path d="M11.8147 1.97869H12.3239V1.46027H11.8147V1.97869Z" fill="#186DAA"/>
<path d="M9.89038 2.15189H10.343V1.69108H9.89038V2.15189Z" fill="#186DAA"/>
<path d="M10.6257 3.88297H11.3046V3.13349H10.6257V3.88297Z" fill="#186DAA"/>
<path d="M13.4514 3.82523H14.0737V3.1334H13.4514V3.82523Z" fill="#186DAA"/>
<path d="M12.5498 4.80576H13.2853V4.05629H12.5498V4.80576Z" fill="#186DAA"/>
<path d="M16.1692 5.44005H17.1875V4.40231H16.1692V5.44005Z" fill="#186DAA"/>
<path d="M11.3613 5.7856H12.0402V5.09377H11.3613V5.7856Z" fill="#186DAA"/>
<path d="M13.4534 6.70917H14.9243V8.72809H14.6301C14.4661 8.72809 14.2341 8.74539 14.121 8.7627L13.906 8.80307V7.45905H10.9641V8.20893C10.9641 8.76846 10.9472 8.95882 10.8962 8.95882C10.6869 8.95882 0.0170126 9.60488 4.03778e-05 9.61641C-0.0112745 9.63371 2.35919 19.1861 2.38182 19.2034C2.38747 19.2092 2.69863 19.1399 3.07202 19.0477C4.68439 18.6554 7.92043 18.0382 10.7944 17.5825C12.0334 17.3806 12.1861 17.3691 13.0008 17.3979C14.3586 17.4498 15.4278 17.7209 16.6555 18.3324C18.4036 19.1976 19.5577 20.5878 19.9425 22.2895C20.0839 22.9297 20.0669 24.2219 19.9142 24.9544C19.0656 28.9231 16.4179 31.6515 11.7279 33.3878C9.46491 34.2242 6.66448 34.8125 3.89235 35.0317C3.43975 35.0663 3.06636 35.1067 3.06071 35.1125C3.04939 35.124 3.39449 35.1586 3.8188 35.1932C9.53846 35.6836 14.2341 35.0721 17.6795 33.3878C19.784 32.361 21.2493 31.1208 22.3695 29.4076C23.7612 27.2733 24.31 24.6026 23.8291 22.2375C23.2973 19.6072 21.2946 16.9076 18.562 15.1309C18.2452 14.9233 17.985 14.7445 17.985 14.7272C17.9793 14.7041 18.9015 14.4272 20.033 14.0984C21.1588 13.7696 22.1036 13.4812 22.1319 13.4524C22.1602 13.4235 21.9226 12.3737 21.5435 10.8854L20.8986 8.36468L20.1914 8.40506C19.7954 8.42236 19.2183 8.45697 18.9015 8.48005L18.3188 8.51466V6.70917H14.9243V5.2094H13.4534V6.70917Z" fill="#186DAA"/>
<path d="M8.02368 6.53606H8.70257V5.78659H8.02368V6.53606Z" fill="#186DAA"/>
<path d="M10.2312 6.99783H11.193V5.96009H10.2312V6.99783Z" fill="#186DAA"/>
<path d="M10.1177 18.7303C9.11637 18.8515 7.6115 19.1457 7.54927 19.238C7.46441 19.3533 1.19032 34.1433 1.21295 34.178C1.2865 34.2933 3.6909 34.1953 5.08263 34.0164C10.3157 33.3588 14.7851 30.8381 16.7426 27.4521C17.099 26.8291 17.4441 25.9581 17.5969 25.2716C17.7779 24.4929 17.7722 23.1027 17.5969 22.3702C17.1273 20.4435 15.8148 19.2726 13.6253 18.8169C12.9125 18.6669 11.0456 18.6207 10.1177 18.7303Z" fill="#186DAA"/>
</svg>
